<?xml version="1.0" standalone="no"?>
<!DOCTYPE svg PUBLIC "-//W3C//DTD SVG 20010904//EN"
 "http://www.w3.org/TR/2001/REC-SVG-20010904/DTD/svg10.dtd">
<svg version="1.0" xmlns="http://www.w3.org/2000/svg"
 width="200.000000pt" height="75.000000pt" viewBox="0 0 200.000000 75.000000"
 preserveAspectRatio="xMidYMid meet">

<g transform="translate(0.000000,75.000000) scale(0.100000,-0.100000)"
fill="#000000" stroke="none">
<path d="M274 706 c-11 -29 1 -51 26 -51 19 0 26 6 28 24 5 35 -42 58 -54 27z"/>
<path d="M383 704 c-8 -21 13 -42 28 -27 13 13 5 43 -11 43 -6 0 -13 -7 -17
-16z"/>
<path d="M460 671 c0 -15 6 -21 21 -21 25 0 22 33 -4 38 -12 2 -17 -3 -17 -17z"/>
<path d="M194 659 c-10 -17 13 -36 27 -22 12 12 4 33 -11 33 -5 0 -12 -5 -16
-11z"/>
<path d="M534 659 c-10 -17 13 -36 27 -22 12 12 4 33 -11 33 -5 0 -12 -5 -16
-11z"/>
<path d="M215 614 c-18 -18 -16 -33 7 -47 35 -22 66 21 36 51 -16 16 -23 15
-43 -4z"/>
<path d="M413 618 c2 -7 10 -13 17 -13 7 0 15 6 18 13 2 7 -5 12 -18 12 -13 0
-20 -5 -17 -12z"/>
<path d="M342 601 c-8 -4 -12 -19 -10 -32 2 -18 9 -24 28 -24 28 0 39 27 20
50 -14 17 -20 18 -38 6z"/>
<path d="M101 586 c-26 -31 14 -71 45 -45 21 17 14 53 -12 57 -11 2 -26 -4
-33 -12z"/>
<path d="M517 543 c-4 -3 -7 -75 -7 -160 l0 -153 100 0 c111 0 153 13 164 52
11 42 6 59 -23 88 -28 28 -28 30 -10 46 24 21 25 77 2 99 -9 9 -27 21 -40 26
-28 10 -176 12 -186 2z m191 -39 c14 -10 22 -25 22 -45 0 -25 -6 -33 -36 -45
-21 -9 -58 -14 -92 -12 l-57 3 -3 44 c-2 24 -1 50 2 57 8 20 134 19 164 -2z
m21 -148 c27 -24 27 -58 0 -82 -16 -15 -37 -18 -102 -19 l-82 0 -3 49 c-5 77
-3 79 87 75 60 -3 84 -9 100 -23z"/>
<path d="M153 524 c-9 -23 13 -40 32 -24 12 10 13 16 4 26 -15 18 -28 18 -36
-2z"/>
<path d="M258 509 c-21 -12 -24 -59 -6 -77 15 -15 61 -15 76 0 19 19 15 66 -7
78 -24 12 -41 12 -63 -1z"/>
<path d="M1830 495 c0 -18 -5 -25 -20 -25 -11 0 -20 -7 -20 -15 0 -8 9 -15 20
-15 18 0 20 -7 20 -88 0 -73 3 -92 18 -105 24 -22 92 -23 92 -2 0 11 -7 14
-25 9 -44 -11 -55 9 -55 102 l0 84 35 0 c24 0 35 5 35 15 0 10 -11 15 -35 15
-31 0 -35 3 -35 25 0 16 -6 25 -15 25 -9 0 -15 -9 -15 -25z"/>
<path d="M33 454 c-8 -22 10 -49 32 -49 10 0 22 7 28 16 15 24 1 49 -28 49
-15 0 -28 -7 -32 -16z"/>
<path d="M867 454 c-15 -8 -25 -19 -22 -25 4 -6 13 -5 25 1 10 5 36 10 58 10
43 0 72 -23 72 -58 0 -20 -5 -22 -63 -22 -50 0 -68 -4 -85 -20 -65 -61 36
-144 121 -99 16 9 22 9 25 0 2 -6 10 -11 18 -11 11 0 14 19 14 89 0 49 -3 97
-6 106 -16 41 -105 57 -157 29z m133 -139 c0 -54 -85 -88 -124 -49 -39 38 -5
74 70 74 51 0 54 -1 54 -25z"/>
<path d="M1100 455 c0 -12 14 -15 70 -15 39 0 70 -3 70 -6 0 -3 -31 -46 -70
-94 -38 -48 -70 -93 -70 -99 0 -7 32 -11 95 -11 57 0 95 4 95 10 0 6 -29 10
-68 10 -38 0 -71 3 -74 6 -4 3 27 48 68 101 41 52 72 99 69 104 -4 5 -46 9
-96 9 -72 0 -89 -3 -89 -15z"/>
<path d="M1378 458 c-16 -5 -28 -17 -28 -25 0 -11 5 -13 18 -7 9 4 38 9 64 12
41 3 48 1 63 -22 28 -42 14 -56 -55 -56 -68 0 -100 -21 -100 -65 0 -55 83 -86
143 -54 16 9 22 9 25 0 2 -6 10 -11 19 -11 12 0 14 15 11 96 -3 91 -5 97 -31
120 -30 26 -79 31 -129 12z m130 -144 c4 -27 -40 -64 -75 -64 -37 0 -63 18
-63 43 0 37 20 48 80 45 47 -3 55 -6 58 -24z"/>
<path d="M1636 463 c-3 -3 -6 -57 -6 -120 0 -94 3 -113 15 -113 12 0 15 15 15
73 0 87 14 119 58 132 17 5 32 15 32 22 0 20 -34 16 -64 -8 -21 -16 -26 -17
-26 -5 0 17 -14 29 -24 19z"/>
<path d="M127 446 c-8 -19 15 -37 32 -26 17 10 7 40 -13 40 -7 0 -16 -6 -19
-14z"/>
<path d="M237 373 c-14 -13 -7 -43 12 -53 23 -12 56 14 47 37 -3 8 -6 17 -6
19 0 7 -46 5 -53 -3z"/>
<path d="M115 354 c-39 -40 14 -110 60 -80 27 18 32 66 9 83 -24 18 -49 16
-69 -3z"/>
<path d="M47 334 c-14 -15 -6 -34 14 -34 14 0 19 5 17 17 -3 18 -20 27 -31 17z"/>
<path d="M260 275 c0 -8 7 -15 15 -15 8 0 15 7 15 15 0 8 -7 15 -15 15 -8 0
-15 -7 -15 -15z"/>
<path d="M66 235 c-3 -9 1 -18 10 -22 19 -7 39 11 30 26 -10 16 -33 13 -40 -4z"/>
<path d="M284 225 c-7 -18 3 -35 21 -35 18 0 26 25 12 39 -15 15 -27 14 -33
-4z"/>
<path d="M177 224 c-14 -15 -6 -34 14 -34 14 0 19 5 17 17 -3 18 -20 27 -31
17z"/>
<path d="M120 175 c-6 -8 -10 -22 -8 -32 4 -24 47 -24 62 0 9 15 7 21 -8 33
-25 18 -31 18 -46 -1z"/>
<path d="M214 165 c-18 -19 -23 -31 -19 -48 14 -46 68 -62 98 -29 24 26 21 68
-5 86 -31 22 -45 20 -74 -9z"/>
<path d="M344 156 c-10 -26 4 -48 28 -44 17 2 23 10 23 28 0 18 -6 26 -23 28
-13 2 -25 -3 -28 -12z"/>
<path d="M560 105 c0 -8 5 -15 10 -15 6 0 10 7 10 15 0 8 -4 15 -10 15 -5 0
-10 -7 -10 -15z"/>
<path d="M420 76 c0 -29 24 -40 44 -20 20 20 9 44 -20 44 -19 0 -24 -5 -24
-24z"/>
<path d="M507 94 c-9 -10 2 -24 19 -24 8 0 14 7 14 15 0 15 -21 21 -33 9z"/>
<path d="M292 53 c5 -26 38 -29 38 -4 0 15 -6 21 -21 21 -14 0 -19 -5 -17 -17z"/>
</g>
</svg>
